HIERARCHY
ROOT Hips
{
    OFFSET   0.000000   0.000000   0.000000
    CHANNELS 6 Xposition Yposition Zposition Zrotation Xrotation Yrotation
    JOINT Chest
    {
        OFFSET   0.000000   8.007230   0.000000
        CHANNELS 3 Zrotation Xrotation Yrotation
        JOINT Chest2
        {
            OFFSET   0.000000  22.077100   0.000000
            CHANNELS 3 Zrotation Xrotation Yrotation
            JOINT Neck
            {
                OFFSET   0.000000  23.255100   0.000000
                CHANNELS 3 Zrotation Xrotation Yrotation
                JOINT Head
                {
                    OFFSET   0.000000  14.370100   1.956600
                    CHANNELS 3 Zrotation Xrotation Yrotation
                    End Site
                    {
                        OFFSET   0.000000  19.566000   0.000000
                    }
                }
            }
            JOINT LeftCollar
            {
                OFFSET   3.911900  19.017000  -0.467063
                CHANNELS 3 Zrotation Xrotation Yrotation
                JOINT LeftShoulder
                {
                    OFFSET  10.383700   0.000000   0.000000
                    CHANNELS 3 Zrotation Xrotation Yrotation
                    JOINT LeftElbow
                    {
                        OFFSET  26.662100   0.001193   0.000980
                        CHANNELS 3 Zrotation Xrotation Yrotation
                        JOINT LeftWrist
                        {
                            OFFSET  28.869000  -0.000059  -0.000082
                            CHANNELS 3 Zrotation Xrotation Yrotation
                            JOINT LeftFinger0
                            {
                                OFFSET   2.044650  -2.323450   3.252850
                                CHANNELS 3 Zrotation Xrotation Yrotation
                                JOINT LeftFinger01
                                {
                                    OFFSET   3.088130   0.000000   0.000000
                                    CHANNELS 3 Zrotation Xrotation Yrotation
                                    JOINT LeftFinger02
                                    {
                                        OFFSET   2.639460   0.000000   0.000000
                                        CHANNELS 3 Zrotation Xrotation Yrotation
                                        End Site
                                        {
                                            OFFSET   2.582190   0.000000   0.000000
                                        }
                                    }
                                }
                            }
                            JOINT LeftFinger1
                            {
                                OFFSET   8.364480   0.000000   3.252850
                                CHANNELS 3 Zrotation Xrotation Yrotation
                                JOINT LeftFinger11
                                {
                                    OFFSET   4.646930   0.000000   0.000000
                                    CHANNELS 3 Zrotation Xrotation Yrotation
                                    JOINT LeftFinger12
                                    {
                                        OFFSET   2.323470   0.000000   0.000000
                                        CHANNELS 3 Zrotation Xrotation Yrotation
                                        End Site
                                        {
                                            OFFSET   2.273050   0.000000   0.000000
                                        }
                                    }
                                }
                            }
                            JOINT LeftFinger2
                            {
                                OFFSET   8.364490   0.000016   1.078090
                                CHANNELS 3 Zrotation Xrotation Yrotation
                                JOINT LeftFinger21
                                {
                                    OFFSET   5.111610   0.000000   0.000000
                                    CHANNELS 3 Zrotation Xrotation Yrotation
                                    JOINT LeftFinger22
                                    {
                                        OFFSET   2.788150   0.000016   0.000000
                                        CHANNELS 3 Zrotation Xrotation Yrotation
                                        End Site
                                        {
                                            OFFSET   2.727660   0.000000   0.000000
                                        }
                                    }
                                }
                            }
                            JOINT LeftFinger3
                            {
                                OFFSET   7.899780   0.000015  -1.078090
                                CHANNELS 3 Zrotation Xrotation Yrotation
                                JOINT LeftFinger31
                                {
                                    OFFSET   4.646930   0.000000   0.000000
                                    CHANNELS 3 Zrotation Xrotation Yrotation
                                    JOINT LeftFinger32
                                    {
                                        OFFSET   2.323470   0.000000   0.000000
                                        CHANNELS 3 Zrotation Xrotation Yrotation
                                        End Site
                                        {
                                            OFFSET   2.273050   0.000000   0.000000
                                        }
                                    }
                                }
                            }
                            JOINT LeftFinger4
                            {
                                OFFSET   7.435090   0.000000  -3.252850
                                CHANNELS 3 Zrotation Xrotation Yrotation
                                JOINT LeftFinger41
                                {
                                    OFFSET   3.717550   0.000000   0.000000
                                    CHANNELS 3 Zrotation Xrotation Yrotation
                                    JOINT LeftFinger42
                                    {
                                        OFFSET   1.858770   0.000000   0.000000
                                        CHANNELS 3 Zrotation Xrotation Yrotation
                                        End Site
                                        {
                                            OFFSET   1.818440   0.000000   0.000000
                                        }
                                    }
                                }
                            }
                        }
                    }
                }
            }
            JOINT RightCollar
            {
                OFFSET  -3.911910  19.017000  -0.467062
                CHANNELS 3 Zrotation Xrotation Yrotation
                JOINT RightShoulder
                {
                    OFFSET -10.383700   0.000014   0.000000
                    CHANNELS 3 Zrotation Xrotation Yrotation
                    JOINT RightElbow
                    {
                        OFFSET -26.662100   0.001225   0.001091
                        CHANNELS 3 Zrotation Xrotation Yrotation
                        JOINT RightWrist
                        {
                            OFFSET -28.869000  -0.000020  -0.000085
                            CHANNELS 3 Zrotation Xrotation Yrotation
                            JOINT RightFinger0
                            {
                                OFFSET  -2.044650  -2.323490   3.252850
                                CHANNELS 3 Zrotation Xrotation Yrotation
                                JOINT RightFinger01
                                {
                                    OFFSET  -3.088130   0.000000   0.000000
                                    CHANNELS 3 Zrotation Xrotation Yrotation
                                    JOINT RightFinger02
                                    {
                                        OFFSET  -2.639460   0.000000   0.000000
                                        CHANNELS 3 Zrotation Xrotation Yrotation
                                        End Site
                                        {
                                            OFFSET  -2.582190   0.000000   0.000000
                                        }
                                    }
                                }
                            }
                            JOINT RightFinger1
                            {
                                OFFSET  -8.364480   0.000000   3.252850
                                CHANNELS 3 Zrotation Xrotation Yrotation
                                JOINT RightFinger11
                                {
                                    OFFSET  -4.646930   0.000000   0.000000
                                    CHANNELS 3 Zrotation Xrotation Yrotation
                                    JOINT RightFinger12
                                    {
                                        OFFSET  -2.323470   0.000000   0.000000
                                        CHANNELS 3 Zrotation Xrotation Yrotation
                                        End Site
                                        {
                                            OFFSET  -2.273050   0.000000   0.000000
                                        }
                                    }
                                }
                            }
                            JOINT RightFinger2
                            {
                                OFFSET  -8.364480   0.000000   1.078090
                                CHANNELS 3 Zrotation Xrotation Yrotation
                                JOINT RightFinger21
                                {
                                    OFFSET  -5.111620   0.000000   0.000000
                                    CHANNELS 3 Zrotation Xrotation Yrotation
                                    JOINT RightFinger22
                                    {
                                        OFFSET  -2.788160   0.000000   0.000000
                                        CHANNELS 3 Zrotation Xrotation Yrotation
                                        End Site
                                        {
                                            OFFSET  -2.727660   0.000000   0.000000
                                        }
                                    }
                                }
                            }
                            JOINT RightFinger3
                            {
                                OFFSET  -7.899780   0.000000  -1.078090
                                CHANNELS 3 Zrotation Xrotation Yrotation
                                JOINT RightFinger31
                                {
                                    OFFSET  -4.646930   0.000000   0.000000
                                    CHANNELS 3 Zrotation Xrotation Yrotation
                                    JOINT RightFinger32
                                    {
                                        OFFSET  -2.323470   0.000000   0.000000
                                        CHANNELS 3 Zrotation Xrotation Yrotation
                                        End Site
                                        {
                                            OFFSET  -2.273050   0.000000   0.000000
                                        }
                                    }
                                }
                            }
                            JOINT RightFinger4
                            {
                                OFFSET  -7.435090   0.000000  -3.252850
                                CHANNELS 3 Zrotation Xrotation Yrotation
                                JOINT RightFinger41
                                {
                                    OFFSET  -3.717550   0.000000   0.000000
                                    CHANNELS 3 Zrotation Xrotation Yrotation
                                    JOINT RightFinger42
                                    {
                                        OFFSET  -1.858760   0.000000   0.000000
                                        CHANNELS 3 Zrotation Xrotation Yrotation
                                        End Site
                                        {
                                            OFFSET  -1.818440   0.000000   0.000000
                                        }
                                    }
                                }
                            }
                        }
                    }
                }
            }
        }
    }
    JOINT LeftHip
    {
        OFFSET   9.783030   0.000000   0.000000
        CHANNELS 3 Zrotation Xrotation Yrotation
        JOINT LeftKnee
        {
            OFFSET   0.000063 -41.789100   0.000608
            CHANNELS 3 Zrotation Xrotation Yrotation
            JOINT LeftAnkle
            {
                OFFSET   0.000048 -41.133200  -0.000184
                CHANNELS 3 Zrotation Xrotation Yrotation
                JOINT LeftToe
                {
                    OFFSET   0.000000  -6.358960  14.674500
                    CHANNELS 3 Zrotation Xrotation Yrotation
                    End Site
                    {
                        OFFSET   0.000000   0.000000   3.913200
                    }
                }
            }
        }
    }
    JOINT RightHip
    {
        OFFSET  -9.783030   0.000000   0.000000
        CHANNELS 3 Zrotation Xrotation Yrotation
        JOINT RightKnee
        {
            OFFSET   0.000071 -41.789100   0.001239
            CHANNELS 3 Zrotation Xrotation Yrotation
            JOINT RightAnkle
            {
                OFFSET   0.000037 -41.133200  -0.000166
                CHANNELS 3 Zrotation Xrotation Yrotation
                JOINT RightToe
                {
                    OFFSET   0.000000  -6.358960  14.674500
                    CHANNELS 3 Zrotation Xrotation Yrotation
                    End Site
                    {
                        OFFSET   0.000000   0.000000   3.913200
                    }
                }
            }
        }
    }
}
MOTION
Frames: 4
Frame Time:   0.016667
 -0.751997  89.582900  -1.756830  -3.402870  -7.771130  -4.730820   0.768407   4.912590   0.100182   1.536700   9.826130   0.134705   1.476220   0.061277   0.000797   2.429370   0.125281   1.637360  -6.163820  -2.476220   0.399640 -73.914600  15.798700   2.580580  -0.759554  -2.606240 -23.302400  16.593600 -13.011500  11.719900  42.284000  37.478100 -63.919800 -32.151900   0.003820   0.003578 -11.069200  -0.003916   0.009643 -28.911700   5.808360 -10.383600 -24.087200  -0.000577  -0.002091 -16.861000  -0.000799   0.000061 -27.346000  -1.473980   2.857560 -28.675400   0.004603   0.000679 -19.097800  -0.002390   0.005883 -26.486400  -1.432190   2.879600 -26.522300   0.004727   0.009236 -17.663900  -0.002181  -0.002135 -25.683200  -1.391660   2.899460 -38.577500  -0.001628  -0.001752 -25.692600  -0.000137  -0.001116  10.383000  -0.553274   8.783370  69.485000  13.814700  -7.535380  -1.013770 -11.177500  17.434700 -19.114900  -3.721710  -5.872570 -37.626300  32.469100  72.085300  28.760400   0.000810  -0.004108   9.380190   0.008929  -0.003124  34.587700   8.011010  11.428600  28.948200  -0.006028  -0.006294  20.263800  -0.006472  -0.003897  28.623300   3.310590   6.043220  41.648100  -0.003311  -0.007122  27.737600  -0.007029  -0.007562  28.407800   3.288020   6.055500  37.024500  -0.005324  -0.003705  24.658300  -0.007214  -0.006192  35.629800   0.085399   0.119071  53.444900  -0.003042  -0.004688  35.594300  -0.003534  -0.006416   2.672620  10.383900   3.420710   1.186960   0.173803   8.305790  -1.806780  -3.776630   2.731090   0.000000   0.000000   0.000000   3.079250   8.937010  -6.802970  -0.543489   2.037660  -7.450290   0.046544  -4.024160   1.672000   0.000000   0.000000  -0.000000
 -0.757207  89.582900  -1.761830  -3.402530  -7.782300  -4.721780   0.768137   4.912530   0.099720   1.536140   9.825990   0.133811   1.484200   0.063972   0.000791   2.437440   0.130219   1.628450  -6.163540  -2.476390   0.401314 -73.915700  15.810000   2.564900  -0.778320  -2.629810 -23.273800  16.615500 -13.013100  11.740900  42.226200  37.420400 -63.893600 -32.154500   0.003829   0.003558 -11.073400  -0.003917   0.009644 -28.921600   5.814190 -10.389600 -24.095900  -0.000576  -0.002094 -16.867100  -0.000802   0.000030 -27.349000  -1.473110   2.859220 -28.676600   0.004602   0.000666 -19.098600  -0.002391   0.005882 -26.490000  -1.431290   2.881190 -26.525800   0.004726   0.009234 -17.666200  -0.002182  -0.002138 -25.684700  -1.390780   2.901110 -38.579700  -0.001628  -0.001755 -25.694000  -0.000137  -0.001122  10.381700  -0.544486   8.786330  69.467300  13.876500  -7.488970  -0.964733 -11.235700  17.367000 -19.116800  -3.697630  -5.884120 -37.649200  32.464100  72.069800  28.736400   0.000827  -0.004100   9.368150   0.008928  -0.003111  34.582500   8.023330  11.447200  28.947700  -0.006028  -0.006293  20.263500  -0.006469  -0.003894  28.619400   3.327910   6.075110  41.636100  -0.003309  -0.007111  27.729600  -0.007024  -0.007555  28.403800   3.305270   6.087430  37.028100  -0.005319  -0.003696  24.660700  -0.007209  -0.006187  35.629700   0.086785   0.121035  53.444800  -0.003042  -0.004681  35.594200  -0.003529  -0.006414   2.671960  10.390300   3.420870   1.190630   0.170751   8.301030  -1.810100  -3.770580   2.726130  -0.000000   0.000000   0.000000   3.079550   8.937620  -6.804740  -0.541178   2.059300  -7.445540   0.044713  -4.032660   1.659210  -0.000000   0.000000   0.000000
 -0.766032  89.582800  -1.769270  -3.401910  -7.801770  -4.706090   0.767936   4.912400   0.098449   1.535870   9.825680   0.131253   1.492210   0.070027   0.000783   2.446080   0.141817   1.614540  -6.163040  -2.476670   0.407918 -73.924600  15.825400   2.540340  -0.807783  -2.665930 -23.223300  16.639300 -13.024000  11.762300  42.154500  37.331800 -63.872400 -32.169100   0.003841   0.003515 -11.084500  -0.003918   0.009656 -28.949100   5.828350 -10.402600 -24.120000  -0.000575  -0.002101 -16.884000  -0.000804   0.000000 -27.354800  -1.472220   2.863060 -28.685200   0.004601   0.000633 -19.104300  -0.002393   0.005879 -26.501600  -1.430380   2.884820 -26.537300   0.004721   0.009229 -17.673900  -0.002186  -0.002144 -25.693600  -1.389900   2.904830 -38.593100  -0.001628  -0.001763 -25.703000  -0.000139  -0.001138  10.379600  -0.530808   8.793170  69.442300  13.972200  -7.414010  -0.865035 -11.339800  17.265800 -19.140700  -3.673560  -5.895670 -37.707900  32.471900  72.045100  28.673900   0.000846  -0.004088   9.336910   0.008926  -0.003098  34.573500   8.045140  11.479300  28.947200  -0.006033  -0.006288  20.263100  -0.006462  -0.003889  28.612600   3.358980   6.132280  41.624000  -0.003303  -0.007084  27.721600  -0.007007  -0.007534  28.396900   3.336230   6.144660  37.036400  -0.005308  -0.003669  24.666200  -0.007196  -0.006174  35.629100   0.089988   0.125567  53.443800  -0.003044  -0.004662  35.593600  -0.003515  -0.006408   2.670890  10.401300   3.421150   1.195970   0.167701   8.293590  -1.815360  -3.761270   2.717670   0.000000   0.000000   0.000000   3.080760   8.941960  -6.809440  -0.538871   2.080940  -7.440780   0.040564  -4.042090   1.641480   0.000000   0.000000   0.000000
 -0.773536  89.582800  -1.773360  -3.401250  -7.819110  -4.691660   0.768818   4.912200   0.096274   1.537880   9.825240   0.126775   1.492250   0.078373   0.000778   2.446500   0.158671   1.604230  -6.162500  -2.476930   0.421630 -73.947000  15.829900   2.523830  -0.828157  -2.689260 -23.174900  16.644800 -13.057400  11.759500  42.088700  37.262000 -63.912200 -32.207300   0.003847   0.003459 -11.104000  -0.003916   0.009693 -29.007600   5.855900 -10.425000 -24.170800  -0.000573  -0.002112 -16.919600  -0.000803  -0.000000 -27.361600  -1.478620   2.866880 -28.724600   0.004600   0.000581 -19.130500  -0.002395   0.005874 -26.527700  -1.437020   2.888240 -26.564100   0.004714   0.009220 -17.691700  -0.002192  -0.002155 -25.720100  -1.396370   2.908300 -38.633700  -0.001626  -0.001776 -25.730000  -0.000143  -0.001165  10.380300  -0.522476   8.803770  69.431900  14.033900  -7.361190  -0.741024 -11.442000  17.208100 -19.245400  -3.681580  -5.868530 -37.833600  32.513100  72.034300  28.561800   0.000847  -0.004085   9.280880   0.008939  -0.003098  34.565300   8.070830  11.514800  28.948400  -0.006042  -0.006278  20.264000  -0.006450  -0.003885  28.605800   3.390330   6.189960  41.624200  -0.003294  -0.007047  27.721700  -0.006978  -0.007497  28.391300   3.367370   6.202460  37.042100  -0.005291  -0.003628  24.670000  -0.007177  -0.006153  35.608100   0.095873   0.133875  53.412300  -0.003046  -0.004632  35.572700  -0.003494  -0.006397   2.670030  10.412400   3.421420   1.198370   0.168449   8.288730  -1.818810  -3.754300   2.709960   0.000000   0.000000   0.000000   3.087500   8.960530  -6.819420  -0.538901   2.076800  -7.441230   0.034718  -4.042960   1.634550   0.000000   0.000000   0.000000
